<?xml version="1.0" encoding="utf-8"?>
<!-- Generator: Adobe Illustrator 26.1.0, SVG Export Plug-In . SVG Version: 6.00 Build 0)  -->
<svg version="1.1" id="Capa_1" xmlns="http://www.w3.org/2000/svg" xmlns:xlink="http://www.w3.org/1999/xlink" x="0px" y="0px"
	 viewBox="0 0 700 700" style="enable-background:new 0 0 700 700;" xml:space="preserve">
<style type="text/css">
	.st0{fill:#333333;}
	.st1{display:none;fill:#FFFFFF;}
	.st2{fill:#FFFFFF;}
	.st3{fill:#E993BC;}
	.st4{display:none;}
	.st5{display:inline;}
</style>
<rect x="-10.3" y="-24.9" class="st0" width="725.1" height="743.1"/>
<circle class="st1" cx="350" cy="380" r="217"/>
<g>
	<g>
		<path class="st2" d="M350.3,114.3C199.7,114.3,77.6,237,77.6,387c0,72.7,28.6,141.6,79.9,192.9c6.5,6.5,18.2,6.5,25.3,0l44.8-44.8
			c7.1-7.1,7.1-18.2,0-25.3c-7.1-7.1-18.2-7.1-25.3,0l-31.8,31.8c-33.1-38.3-52.6-86.4-56.5-137h44.8c9.7,0,17.5-7.8,17.5-17.5
			c0-9.7-7.8-17.5-17.5-17.5h-44.8c3.9-52,24.7-99.4,56.5-137l31.2,31.2c3.2,3.2,7.8,5.2,12.3,5.2s9.1-1.9,12.3-5.2
			c7.1-7.1,7.1-18.2,0-25.3l-31.2-31.2c37-32.5,84.4-52.6,137-56.5v44.8c0,9.7,7.8,17.5,17.5,17.5c9.7,0,17.5-7.8,17.5-17.5v-44.8
			c52,3.9,99.4,24.7,137,56.5l-31.8,31.8c-7.1,7.1-7.1,18.2,0,25.3c3.2,3.2,7.8,5.2,12.3,5.2c4.5,0,9.1-1.9,12.3-5.2l31.8-31.8
			c32.5,37,52.6,84.4,56.5,137l-43.5,0c-9.7,0-17.5,7.8-17.5,17.5c0,9.7,7.8,18.2,17.5,18.2h44.8c-3.9,50.7-23.4,98.1-56.5,137
			l-31.8-31.8c-7.1-7.1-18.2-7.1-25.3,0c-7.1,7.1-7.1,18.2,0,25.3l44.8,44.8c3.2,3.2,7.8,5.2,12.3,5.2c4.5,0,9.1-1.9,12.3-5.2
			c51.3-52,79.9-120.1,79.9-192.9C623.1,237,500.3,114.3,350.3,114.3L350.3,114.3z"/>
	</g>
	<g>
		<path id="Path_00000096751169512631932630000012251650398342667451_" class="st2" d="M388.5,424.5h-56.7c-3.7,0-6.6-3-6.6-6.6
			V297.6c0-3.7-3-6.6-6.6-6.6h-18.8c-3.7,0-6.6,3-6.6,6.6v152.8c0,3.7,3,6.6,6.6,6.6h88.8c3.7,0,6.6-3,6.6-6.6v-19.3
			c0-1.8-0.7-3.4-1.9-4.7C391.9,425.2,390.2,424.5,388.5,424.5z"/>
		<path id="Path_00000035518703866673588120000011210397391705133969_" class="st3" d="M412.5,292.1c-10.5,0-19.1,8.5-19.1,19.1
			s8.5,19.1,19.1,19.1s19.1-8.5,19.1-19.1c0-5.1-2-9.9-5.6-13.5C422.4,294.1,417.6,292.1,412.5,292.1z"/>
	</g>
</g>
<path class="st1" d="M373.6,547.9c-4.5-2.2-9.6-3.4-14.4-3.2l-14.1-40c-2-5.7-7.9-8.6-13.6-6.6c-5.7,2-8.6,7.9-6.6,13.6l13.9,40.4
	c-4,2.8-7.2,6.8-9.4,11.3c-8,16.3-1.2,36,15.1,44c16.3,8,36,1.2,44-15.1C396.6,575.9,390,555.9,373.6,547.9L373.6,547.9z
	 M353.9,588.2c-5.9-2.9-8.1-10-5.3-15.5c2.9-5.9,10-8.1,15.5-5.3c5.9,2.9,8.1,10,5.3,15.5C366.8,588.5,359.5,591,353.9,588.2z"/>
<path class="st4" d="M350.3,75.3l39.6-39.6c5.9-5.9,5.9-15.4,0-21.4c-5.9-5.9-15.4-5.9-21.4,0L355,27.8l-0.4-77.2
	c0-8.7-6.7-15.4-15.4-15.4c-8.7,0-15.4,6.7-15.4,15.4v76.8L310.3,14c-5.9-5.9-15.4-5.9-21.4,0c-5.9,5.9-5.9,15.4,0,21.4l39.6,39.6
	C334.8,81.3,344.3,81.3,350.3,75.3z"/>
<g id="Logo-typo-positive" class="st4">
	<g id="Negative-Big-LIQUID" class="st5">
		<path id="Path" d="M142.4,684h-38c-2.5,0-4.5-2-4.5-4.5v-80.6c0-2.5-2-4.5-4.5-4.5H82.9c-2.5,0-4.5,2-4.5,4.5v102.4
			c0,2.5,2,4.5,4.5,4.5h59.5c2.5,0,4.5-2,4.5-4.5v-12.9c0-1.2-0.5-2.3-1.3-3.1C144.7,684.4,143.6,684,142.4,684z"/>
		<path id="Shape" d="M309.3,688.2c-1.4-1.5-1.5-3.8-0.4-5.5c6.4-9.7,9.8-21,9.8-32.7c0.1-7.7-1.4-15.2-4.2-22.3
			c-2.7-6.8-6.8-13-11.9-18.1c-5.3-5.2-11.5-9.4-18.4-12.3c-7.1-3-15-4.5-23.5-4.5c-8.6,0-16.4,1.5-23.6,4.5
			c-6.9,2.9-13.1,7-18.4,12.2c-5.2,5.2-9.2,11.3-11.9,18.1c-2.8,7.1-4.3,14.7-4.2,22.3c-0.1,7.7,1.4,15.2,4.2,22.3
			c2.7,6.8,6.8,13,11.9,18.1c5.3,5.2,11.5,9.4,18.4,12.2c7.1,3,15,4.5,23.6,4.5c6,0,12-0.8,17.8-2.5c4.2-1.3,8.3-3,12.2-5.2
			c1.8-1.1,4.2-0.7,5.6,0.9l3.2,3.6c0.8,1,2.1,1.5,3.3,1.5h12.3c1.8,0,3.3-1,4.1-2.6c0.7-1.6,0.4-3.5-0.8-4.8L309.3,688.2z
			 M295.9,660.2c-0.2,0.7-0.4,1.4-0.6,2.1c-0.5,1.5-1.8,2.7-3.3,3c-1.6,0.3-3.2-0.2-4.2-1.4l-15.3-17.2c-1.6-1.8-4.4-2-6.2-0.4
			l-6.8,5.9c-0.9,0.8-1.4,1.9-1.5,3.1c-0.1,1.2,0.3,2.3,1.1,3.2l17.5,19.8c0.9,1.1,1.3,2.5,1,3.9c-0.3,1.4-1.3,2.5-2.6,3.1
			c-1.2,0.5-2.5,1-3.8,1.4c-3.4,1-6.9,1.5-10.5,1.5c-5,0.1-10-1-14.6-3c-4.4-1.9-8.3-4.7-11.6-8.2c-3.3-3.5-5.9-7.6-7.6-12.1
			c-3.7-9.5-3.7-20.1,0-29.7c1.8-4.5,4.3-8.6,7.6-12.2c3.3-3.5,7.2-6.3,11.5-8.2c9.3-4,19.9-4,29.2,0c4.4,1.9,8.3,4.7,11.6,8.2
			c3.3,3.5,5.9,7.7,7.6,12.2C297.5,643.2,298,652,295.9,660.2L295.9,660.2z"/>
		<path id="Path_00000091735270935489880190000000531453016686003851_" d="M428.7,594.4h-12.6c-2.5,0-4.5,2-4.5,4.5v61.6
			c0,5.1-0.6,9.3-1.9,12.6c-1.1,3.1-3,5.9-5.4,8.1c-5,4.8-11.3,7.2-18.9,7.2s-14-2.4-18.9-7.2c-2.4-2.2-4.3-5-5.4-8.1
			c-1.3-3.3-1.9-7.5-1.9-12.6v-61.6c0-1.2-0.5-2.3-1.3-3.1c-0.8-0.8-2-1.3-3.1-1.3h-12.6c-2.5,0-4.5,2-4.5,4.5v60
			c0,8.6,1.2,15.9,3.7,21.9c2.3,5.8,6,11,10.7,15.2c4.4,3.9,9.6,6.8,15.2,8.6c11.8,3.8,24.6,3.8,36.4,0c5.6-1.8,10.7-4.7,15.2-8.6
			c4.7-4.2,8.3-9.4,10.7-15.2c2.4-6,3.7-13.3,3.7-21.9v-60c0-1.2-0.5-2.3-1.3-3.2C431,594.9,429.9,594.4,428.7,594.4z"/>
		<path id="Rectangle" d="M462.3,594.4h12.6c2.5,0,4.5,2,4.5,4.5v70.1c0,2.5-2,4.5-4.5,4.5h-12.6c-2.5,0-4.5-2-4.5-4.5v-70.1
			C457.8,596.4,459.8,594.4,462.3,594.4z"/>
		<path id="Shape_00000016047096953590546390000015405579534518431876_" d="M594.3,624.3c-3.8-7.7-9.4-14.3-16.2-19.4
			c-4.8-3.5-10.2-6.1-15.9-7.8c-6-1.8-13.5-2.7-22.4-2.7h-30.5c-2.5,0-4.5,2-4.5,4.5v102.4c0,2.5,2,4.5,4.5,4.5h30.6
			c8.9,0,16.4-0.9,22.4-2.7c5.7-1.6,11.1-4.3,15.9-7.8c6.9-5.1,12.5-11.7,16.2-19.4c3.9-7.8,5.9-16.4,5.9-25.8
			S598.3,632.2,594.3,624.3z M576.6,663.3c-1.3,4-3.4,7.7-6,11c-3.1,3.9-7,7.1-11.5,9.1c-4.6,2.2-10.3,3.3-16.9,3.3h-11.5
			c-2.5,0-4.4-2-4.4-4.5V618c0-2.5,2-4.4,4.4-4.5h11.5c6.7,0,12.3,1.1,16.9,3.3c4.5,2.1,8.5,5.2,11.5,9.1c2.6,3.3,4.6,7,6,11
			C579.4,645.5,579.4,654.7,576.6,663.3L576.6,663.3z"/>
		<path id="Path_00000104691658215859393330000017339786547143462844_" d="M158.6,595.2c-7.1,0-12.8,5.7-12.8,12.8
			s5.7,12.8,12.8,12.8s12.8-5.7,12.8-12.8c0-3.4-1.3-6.6-3.7-9C165.2,596.5,162,595.2,158.6,595.2z"/>
		<path id="Path_00000049942561297029823800000001857290561134687160_" d="M468.5,683.1c-5.2,0-9.8,3.1-11.8,7.9
			c-2,4.8-0.9,10.3,2.8,13.9s9.2,4.8,13.9,2.8c4.8-2,7.9-6.6,7.9-11.8C481.3,688.8,475.5,683.1,468.5,683.1z"/>
	</g>
</g>
</svg>
